<mxfile host="app.diagrams.net" agent="Mozilla/5.0 (Macintosh; Intel Mac OS X 10_15_7) AppleWebKit/605.1.15 (KHTML, like Gecko) Version/18.3.1 Safari/605.1.15" version="26.1.1">
  <diagram name="Page-1" id="MxJi3hR8qQ3Y2xdRo3Qx">
    <mxGraphModel dx="2233" dy="1116" grid="1" gridSize="10" guides="1" tooltips="1" connect="1" arrows="1" fold="1" page="1" pageScale="1" pageWidth="827" pageHeight="1169" math="0" shadow="0">
      <root>
        <mxCell id="0" />
        <mxCell id="1" parent="0" />
        <mxCell id="P4QTTUL7u6quVxzj3j-v-17" value="" style="strokeWidth=1;shadow=0;dashed=0;align=center;html=1;shape=mxgraph.mockup.containers.browserWindow;rSize=0;strokeColor=#666666;strokeColor2=#008cff;strokeColor3=#c4c4c4;mainText=,;recursiveResize=0;sketch=1;hachureGap=4;jiggle=2;curveFitting=1;fontFamily=Architects Daughter;fontSource=https%3A%2F%2Ffonts.googleapis.com%2Fcss%3Ffamily%3DArchitects%2BDaughter;" vertex="1" parent="1">
          <mxGeometry x="-220" y="66" width="1460" height="990" as="geometry" />
        </mxCell>
        <mxCell id="P4QTTUL7u6quVxzj3j-v-18" value="Page 1" style="strokeWidth=1;shadow=0;dashed=0;align=center;html=1;shape=mxgraph.mockup.containers.anchor;fontSize=17;fontColor=#666666;align=left;whiteSpace=wrap;sketch=1;hachureGap=4;jiggle=2;curveFitting=1;fontFamily=Architects Daughter;fontSource=https%3A%2F%2Ffonts.googleapis.com%2Fcss%3Ffamily%3DArchitects%2BDaughter;" vertex="1" parent="P4QTTUL7u6quVxzj3j-v-17">
          <mxGeometry x="60" y="12" width="110" height="26" as="geometry" />
        </mxCell>
        <mxCell id="P4QTTUL7u6quVxzj3j-v-19" value="https://www.draw.io" style="strokeWidth=1;shadow=0;dashed=0;align=center;html=1;shape=mxgraph.mockup.containers.anchor;rSize=0;fontSize=17;fontColor=#666666;align=left;sketch=1;hachureGap=4;jiggle=2;curveFitting=1;fontFamily=Architects Daughter;fontSource=https%3A%2F%2Ffonts.googleapis.com%2Fcss%3Ffamily%3DArchitects%2BDaughter;" vertex="1" parent="P4QTTUL7u6quVxzj3j-v-17">
          <mxGeometry x="130" y="60" width="250" height="26" as="geometry" />
        </mxCell>
        <mxCell id="P4QTTUL7u6quVxzj3j-v-11" value="Random Numbers" style="shape=rect;fillColor=#ffffff;strokeColor=#eeeeee;shadow=1;fontColor=#000000;fontSize=23;fontStyle=0;verticalAlign=top;spacingBottom=0;spacingLeft=16;spacingTop=20;align=left;whiteSpace=wrap;html=1;sketch=1;hachureGap=4;jiggle=2;curveFitting=1;fontFamily=Architects Daughter;fontSource=https%3A%2F%2Ffonts.googleapis.com%2Fcss%3Ffamily%3DArchitects%2BDaughter;" vertex="1" parent="P4QTTUL7u6quVxzj3j-v-17">
          <mxGeometry x="50" y="220" width="300" height="266" as="geometry" />
        </mxCell>
        <mxCell id="P4QTTUL7u6quVxzj3j-v-12" value="Subtitle here" style="text;fontColor=#999999;fontSize=12;fontStyle=0;verticalAlign=middle;spacingBottom=0;spacingLeft=16;resizeWidth=1;whiteSpace=wrap;html=1;fontFamily=Architects Daughter;fontSource=https%3A%2F%2Ffonts.googleapis.com%2Fcss%3Ffamily%3DArchitects%2BDaughter;" vertex="1" parent="P4QTTUL7u6quVxzj3j-v-11">
          <mxGeometry width="300" height="20" relative="1" as="geometry">
            <mxPoint y="59" as="offset" />
          </mxGeometry>
        </mxCell>
        <mxCell id="P4QTTUL7u6quVxzj3j-v-13" value="I&amp;#39;m a thing. But, like most politicians, he promised more than he could deliver. You won&amp;#39;t have time for sleeping, soldier, not with all the bed making you&amp;#39;ll be doing. Then we&amp;#39;ll go with that data file! Hey, you add a one and two zeros to that or we walk! You&amp;#39;re going to do his laundry? I&amp;#39;ve got to find a way to escape" style="text;whiteSpace=wrap;fontSize=13;spacing=16;spacingTop=-4;resizeWidth=1;resizeHeight=1;html=1;fontFamily=Architects Daughter;fontSource=https%3A%2F%2Ffonts.googleapis.com%2Fcss%3Ffamily%3DArchitects%2BDaughter;" vertex="1" parent="P4QTTUL7u6quVxzj3j-v-11">
          <mxGeometry width="300" height="148" relative="1" as="geometry">
            <mxPoint y="70" as="offset" />
          </mxGeometry>
        </mxCell>
        <mxCell id="P4QTTUL7u6quVxzj3j-v-14" value="ACTION 1" style="shape=rect;strokeColor=none;fillColor=#ffffff;fontColor=#444444;fontStyle=1;whiteSpace=wrap;html=1;sketch=1;hachureGap=4;jiggle=2;curveFitting=1;fontFamily=Architects Daughter;fontSource=https%3A%2F%2Ffonts.googleapis.com%2Fcss%3Ffamily%3DArchitects%2BDaughter;" vertex="1" parent="P4QTTUL7u6quVxzj3j-v-11">
          <mxGeometry y="1" width="70" height="40" relative="1" as="geometry">
            <mxPoint x="8" y="-48" as="offset" />
          </mxGeometry>
        </mxCell>
        <mxCell id="P4QTTUL7u6quVxzj3j-v-20" value="" style="rounded=0;whiteSpace=wrap;html=1;sketch=1;hachureGap=4;jiggle=2;curveFitting=1;fontFamily=Architects Daughter;fontSource=https%3A%2F%2Ffonts.googleapis.com%2Fcss%3Ffamily%3DArchitects%2BDaughter;" vertex="1" parent="P4QTTUL7u6quVxzj3j-v-17">
          <mxGeometry x="270" y="140" width="960" height="60" as="geometry" />
        </mxCell>
        <mxCell id="P4QTTUL7u6quVxzj3j-v-42" value="&lt;font style=&quot;font-size: 24px;&quot;&gt;Logs&lt;/font&gt;" style="rounded=0;whiteSpace=wrap;html=1;sketch=1;hachureGap=4;jiggle=2;curveFitting=1;fontFamily=Architects Daughter;fontSource=https%3A%2F%2Ffonts.googleapis.com%2Fcss%3Ffamily%3DArchitects%2BDaughter;" vertex="1" parent="P4QTTUL7u6quVxzj3j-v-17">
          <mxGeometry x="450" y="748" width="800" height="232" as="geometry" />
        </mxCell>
        <mxCell id="P4QTTUL7u6quVxzj3j-v-48" value="" style="shape=rect;fillColor=#ffffff;strokeColor=#eeeeee;shadow=1;sketch=1;hachureGap=4;jiggle=2;curveFitting=1;fontFamily=Architects Daughter;fontSource=https%3A%2F%2Ffonts.googleapis.com%2Fcss%3Ffamily%3DArchitects%2BDaughter;" vertex="1" parent="P4QTTUL7u6quVxzj3j-v-17">
          <mxGeometry x="44" y="498" width="340" height="250" as="geometry" />
        </mxCell>
        <mxCell id="P4QTTUL7u6quVxzj3j-v-49" value="" style="shape=rect;strokeColor=#eeeeee;fillColor=#ffffff;resizeWidth=1;sketch=1;hachureGap=4;jiggle=2;curveFitting=1;fontFamily=Architects Daughter;fontSource=https%3A%2F%2Ffonts.googleapis.com%2Fcss%3Ffamily%3DArchitects%2BDaughter;" vertex="1" parent="P4QTTUL7u6quVxzj3j-v-48">
          <mxGeometry y="1" width="340" height="48" relative="1" as="geometry">
            <mxPoint y="-48" as="offset" />
          </mxGeometry>
        </mxCell>
        <mxCell id="P4QTTUL7u6quVxzj3j-v-51" value="Sort by" style="text;fontSize=20;fontColor=#666666;spacingTop=10;verticalAlign=middle;spacingLeft=10;resizeWidth=1;whiteSpace=wrap;html=1;fontFamily=Architects Daughter;fontSource=https%3A%2F%2Ffonts.googleapis.com%2Fcss%3Ffamily%3DArchitects%2BDaughter;" vertex="1" parent="P4QTTUL7u6quVxzj3j-v-48">
          <mxGeometry width="245.11627906976744" height="40" relative="1" as="geometry" />
        </mxCell>
        <mxCell id="P4QTTUL7u6quVxzj3j-v-54" value="ACTION" style="shape=rect;strokeColor=none;fillColor=#F37DC3;fontColor=#8C155C;fontStyle=1;fontSize=12;whiteSpace=wrap;html=1;sketch=1;hachureGap=4;jiggle=2;curveFitting=1;fontFamily=Architects Daughter;fontSource=https%3A%2F%2Ffonts.googleapis.com%2Fcss%3Ffamily%3DArchitects%2BDaughter;" vertex="1" parent="P4QTTUL7u6quVxzj3j-v-48">
          <mxGeometry y="1" width="70" height="36" relative="1" as="geometry">
            <mxPoint x="5" y="-42" as="offset" />
          </mxGeometry>
        </mxCell>
        <mxCell id="P4QTTUL7u6quVxzj3j-v-57" value="" style="swimlane;shape=rect;strokeColor=#EEEEEE;fillColor=#ffffff;fontColor=#000000;fontStyle=0;childLayout=stackLayout;horizontal=1;startSize=0;horizontalStack=0;resizeParent=1;resizeParentMax=0;resizeLast=0;collapsible=0;marginBottom=0;whiteSpace=wrap;html=1;shadow=1;sketch=1;hachureGap=4;jiggle=2;curveFitting=1;fontFamily=Architects Daughter;fontSource=https%3A%2F%2Ffonts.googleapis.com%2Fcss%3Ffamily%3DArchitects%2BDaughter;" vertex="1" parent="P4QTTUL7u6quVxzj3j-v-48">
          <mxGeometry x="160" y="47.52618135376756" width="160" height="90.51724137931033" as="geometry" />
        </mxCell>
        <mxCell id="P4QTTUL7u6quVxzj3j-v-61" value="Merge Sort" style="text;strokeColor=none;align=left;verticalAlign=middle;spacingLeft=12;spacingRight=10;overflow=hidden;points=[[0,0.5],[1,0.5]];portConstraint=eastwest;rotatable=0;whiteSpace=wrap;html=1;shape=mxgraph.bootstrap.topButton;rSize=3;fillColor=none;fontSize=15;fontColor=inherit;fontFamily=Architects Daughter;fontSource=https%3A%2F%2Ffonts.googleapis.com%2Fcss%3Ffamily%3DArchitects%2BDaughter;" vertex="1" parent="P4QTTUL7u6quVxzj3j-v-57">
          <mxGeometry width="160" height="45.25862068965517" as="geometry" />
        </mxCell>
        <mxCell id="P4QTTUL7u6quVxzj3j-v-62" value="Quick Sort" style="text;strokeColor=none;align=left;verticalAlign=middle;spacingLeft=12;spacingRight=10;overflow=hidden;points=[[0,0.5],[1,0.5]];portConstraint=eastwest;rotatable=0;whiteSpace=wrap;html=1;shape=mxgraph.bootstrap.topButton;rSize=3;fillColor=none;fontSize=15;fontColor=inherit;fontFamily=Architects Daughter;fontSource=https%3A%2F%2Ffonts.googleapis.com%2Fcss%3Ffamily%3DArchitects%2BDaughter;" vertex="1" parent="P4QTTUL7u6quVxzj3j-v-57">
          <mxGeometry y="45.25862068965517" width="160" height="45.25862068965517" as="geometry" />
        </mxCell>
        <mxCell id="P4QTTUL7u6quVxzj3j-v-43" value="" style="swimlane;shape=rect;strokeColor=#EEEEEE;fillColor=#ffffff;fontColor=#000000;fontStyle=0;childLayout=stackLayout;horizontal=1;startSize=0;horizontalStack=0;resizeParent=1;resizeParentMax=0;resizeLast=0;collapsible=0;marginBottom=0;whiteSpace=wrap;html=1;shadow=1;sketch=1;hachureGap=4;jiggle=2;curveFitting=1;fontFamily=Architects Daughter;fontSource=https%3A%2F%2Ffonts.googleapis.com%2Fcss%3Ffamily%3DArchitects%2BDaughter;" vertex="1" parent="P4QTTUL7u6quVxzj3j-v-17">
          <mxGeometry x="50" y="566.25" width="160" height="157.49999999999997" as="geometry" />
        </mxCell>
        <mxCell id="P4QTTUL7u6quVxzj3j-v-44" value="Bubble Sort" style="text;strokeColor=none;align=left;verticalAlign=middle;spacingLeft=12;spacingRight=10;overflow=hidden;points=[[0,0.5],[1,0.5]];portConstraint=eastwest;rotatable=0;whiteSpace=wrap;html=1;shape=mxgraph.bootstrap.topButton;rSize=3;fillColor=none;fontSize=15;fontColor=inherit;fontFamily=Architects Daughter;fontSource=https%3A%2F%2Ffonts.googleapis.com%2Fcss%3Ffamily%3DArchitects%2BDaughter;" vertex="1" parent="P4QTTUL7u6quVxzj3j-v-43">
          <mxGeometry width="160" height="52.49999999999999" as="geometry" />
        </mxCell>
        <mxCell id="P4QTTUL7u6quVxzj3j-v-45" value="Selection Sort" style="text;strokeColor=none;align=left;verticalAlign=middle;spacingLeft=12;spacingRight=10;overflow=hidden;points=[[0,0.5],[1,0.5]];portConstraint=eastwest;rotatable=0;whiteSpace=wrap;html=1;shape=mxgraph.bootstrap.topButton;rSize=3;fillColor=none;fontSize=15;fontColor=inherit;fontFamily=Architects Daughter;fontSource=https%3A%2F%2Ffonts.googleapis.com%2Fcss%3Ffamily%3DArchitects%2BDaughter;" vertex="1" parent="P4QTTUL7u6quVxzj3j-v-43">
          <mxGeometry y="52.49999999999999" width="160" height="52.49999999999999" as="geometry" />
        </mxCell>
        <mxCell id="P4QTTUL7u6quVxzj3j-v-47" value="Insertion Sort" style="text;strokeColor=none;align=left;verticalAlign=middle;spacingLeft=12;spacingRight=10;overflow=hidden;points=[[0,0.5],[1,0.5]];portConstraint=eastwest;rotatable=0;whiteSpace=wrap;html=1;shape=mxgraph.bootstrap.topButton;rSize=3;fillColor=none;fontSize=15;fontColor=inherit;fontFamily=Architects Daughter;fontSource=https%3A%2F%2Ffonts.googleapis.com%2Fcss%3Ffamily%3DArchitects%2BDaughter;" vertex="1" parent="P4QTTUL7u6quVxzj3j-v-43">
          <mxGeometry y="104.99999999999999" width="160" height="52.49999999999999" as="geometry" />
        </mxCell>
        <mxCell id="P4QTTUL7u6quVxzj3j-v-133" value="" style="verticalLabelPosition=bottom;shadow=0;dashed=0;align=center;html=1;verticalAlign=top;strokeWidth=1;shape=mxgraph.mockup.graphics.columnChart;strokeColor=none;strokeColor2=none;strokeColor3=#666666;fillColor2=#008cff;fillColor3=#dddddd;sketch=1;hachureGap=4;jiggle=2;curveFitting=1;fontFamily=Architects Daughter;fontSource=https%3A%2F%2Ffonts.googleapis.com%2Fcss%3Ffamily%3DArchitects%2BDaughter;" vertex="1" parent="P4QTTUL7u6quVxzj3j-v-17">
          <mxGeometry x="45" y="778.5" width="350" height="203" as="geometry" />
        </mxCell>
        <mxCell id="P4QTTUL7u6quVxzj3j-v-87" value="" style="strokeWidth=1;shadow=0;dashed=0;align=center;html=1;shape=mxgraph.mockup.graphics.rrect;rSize=0;sketch=1;hachureGap=4;jiggle=2;curveFitting=1;fillStyle=auto;fillColor=#000000;textOpacity=0;" vertex="1" parent="1">
          <mxGeometry x="230" y="290" width="800" height="510" as="geometry" />
        </mxCell>
        <mxCell id="P4QTTUL7u6quVxzj3j-v-88" value="#" style="strokeColor=inherit;fillColor=inherit;gradientColor=inherit;strokeWidth=1;shadow=0;dashed=0;align=center;html=1;shape=mxgraph.mockup.graphics.rrect;rSize=0;fontColor=#666666;sketch=1;hachureGap=4;jiggle=2;curveFitting=1;fontFamily=Architects Daughter;fontSource=https%3A%2F%2Ffonts.googleapis.com%2Fcss%3Ffamily%3DArchitects%2BDaughter;" vertex="1" parent="P4QTTUL7u6quVxzj3j-v-87">
          <mxGeometry width="26.666666666666668" height="68.00000000000001" as="geometry" />
        </mxCell>
        <mxCell id="P4QTTUL7u6quVxzj3j-v-89" value="Task" style="strokeColor=inherit;fillColor=inherit;gradientColor=inherit;strokeWidth=1;shadow=0;dashed=0;align=center;html=1;shape=mxgraph.mockup.graphics.rrect;rSize=0;fontColor=#666666;sketch=1;hachureGap=4;jiggle=2;curveFitting=1;fontFamily=Architects Daughter;fontSource=https%3A%2F%2Ffonts.googleapis.com%2Fcss%3Ffamily%3DArchitects%2BDaughter;" vertex="1" parent="P4QTTUL7u6quVxzj3j-v-87">
          <mxGeometry x="26.666666666666668" width="53.333333333333336" height="68.00000000000001" as="geometry" />
        </mxCell>
        <mxCell id="P4QTTUL7u6quVxzj3j-v-90" value="Start" style="strokeColor=inherit;fillColor=inherit;gradientColor=inherit;strokeWidth=1;shadow=0;dashed=0;align=center;html=1;shape=mxgraph.mockup.graphics.rrect;rSize=0;fontColor=#666666;sketch=1;hachureGap=4;jiggle=2;curveFitting=1;fontFamily=Architects Daughter;fontSource=https%3A%2F%2Ffonts.googleapis.com%2Fcss%3Ffamily%3DArchitects%2BDaughter;" vertex="1" parent="P4QTTUL7u6quVxzj3j-v-87">
          <mxGeometry x="80.00000000000001" width="173.33333333333334" height="68.00000000000001" as="geometry" />
        </mxCell>
        <mxCell id="P4QTTUL7u6quVxzj3j-v-91" value="Effort" style="strokeColor=inherit;fillColor=inherit;gradientColor=inherit;strokeWidth=1;shadow=0;dashed=0;align=center;html=1;shape=mxgraph.mockup.graphics.rrect;rSize=0;fontColor=#666666;sketch=1;hachureGap=4;jiggle=2;curveFitting=1;fontFamily=Architects Daughter;fontSource=https%3A%2F%2Ffonts.googleapis.com%2Fcss%3Ffamily%3DArchitects%2BDaughter;" vertex="1" parent="P4QTTUL7u6quVxzj3j-v-87">
          <mxGeometry x="253.33333333333331" width="66.66666666666667" height="68.00000000000001" as="geometry" />
        </mxCell>
        <mxCell id="P4QTTUL7u6quVxzj3j-v-92" value="20//10//2014" style="strokeColor=inherit;fillColor=inherit;gradientColor=inherit;strokeWidth=1;shadow=0;dashed=0;align=center;html=1;shape=mxgraph.mockup.graphics.rrect;rSize=0;fontColor=#666666;sketch=1;hachureGap=4;jiggle=2;curveFitting=1;fontFamily=Architects Daughter;fontSource=https%3A%2F%2Ffonts.googleapis.com%2Fcss%3Ffamily%3DArchitects%2BDaughter;" vertex="1" parent="P4QTTUL7u6quVxzj3j-v-87">
          <mxGeometry x="320.00000000000006" width="280" height="34.00000000000001" as="geometry" />
        </mxCell>
        <mxCell id="P4QTTUL7u6quVxzj3j-v-93" value="27//10//2014" style="strokeColor=inherit;fillColor=inherit;gradientColor=inherit;strokeWidth=1;shadow=0;dashed=0;align=center;html=1;shape=mxgraph.mockup.graphics.rrect;rSize=0;fontColor=#666666;sketch=1;hachureGap=4;jiggle=2;curveFitting=1;fontFamily=Architects Daughter;fontSource=https%3A%2F%2Ffonts.googleapis.com%2Fcss%3Ffamily%3DArchitects%2BDaughter;" vertex="1" parent="P4QTTUL7u6quVxzj3j-v-87">
          <mxGeometry x="600.0000000000001" width="200" height="34.00000000000001" as="geometry" />
        </mxCell>
        <mxCell id="P4QTTUL7u6quVxzj3j-v-94" value="M" style="strokeColor=inherit;fillColor=inherit;gradientColor=inherit;strokeWidth=1;shadow=0;dashed=0;align=center;html=1;shape=mxgraph.mockup.graphics.rrect;rSize=0;;fontColor=#666666;sketch=1;hachureGap=4;jiggle=2;curveFitting=1;fontFamily=Architects Daughter;fontSource=https%3A%2F%2Ffonts.googleapis.com%2Fcss%3Ffamily%3DArchitects%2BDaughter;" vertex="1" parent="P4QTTUL7u6quVxzj3j-v-87">
          <mxGeometry x="320.00000000000006" y="34.00000000000001" width="40.00000000000001" height="34.00000000000001" as="geometry" />
        </mxCell>
        <mxCell id="P4QTTUL7u6quVxzj3j-v-95" value="T" style="strokeColor=inherit;fillColor=inherit;gradientColor=inherit;strokeWidth=1;shadow=0;dashed=0;align=center;html=1;shape=mxgraph.mockup.graphics.rrect;rSize=0;fontColor=#666666;sketch=1;hachureGap=4;jiggle=2;curveFitting=1;fontFamily=Architects Daughter;fontSource=https%3A%2F%2Ffonts.googleapis.com%2Fcss%3Ffamily%3DArchitects%2BDaughter;" vertex="1" parent="P4QTTUL7u6quVxzj3j-v-87">
          <mxGeometry x="360.00000000000006" y="34.00000000000001" width="40.00000000000001" height="34.00000000000001" as="geometry" />
        </mxCell>
        <mxCell id="P4QTTUL7u6quVxzj3j-v-96" value="W" style="strokeColor=inherit;fillColor=inherit;gradientColor=inherit;strokeWidth=1;shadow=0;dashed=0;align=center;html=1;shape=mxgraph.mockup.graphics.rrect;rSize=0;fontColor=#666666;sketch=1;hachureGap=4;jiggle=2;curveFitting=1;fontFamily=Architects Daughter;fontSource=https%3A%2F%2Ffonts.googleapis.com%2Fcss%3Ffamily%3DArchitects%2BDaughter;" vertex="1" parent="P4QTTUL7u6quVxzj3j-v-87">
          <mxGeometry x="400" y="34.00000000000001" width="40.00000000000001" height="34.00000000000001" as="geometry" />
        </mxCell>
        <mxCell id="P4QTTUL7u6quVxzj3j-v-97" value="T" style="strokeColor=inherit;fillColor=inherit;gradientColor=inherit;strokeWidth=1;shadow=0;dashed=0;align=center;html=1;shape=mxgraph.mockup.graphics.rrect;rSize=0;fontColor=#666666;sketch=1;hachureGap=4;jiggle=2;curveFitting=1;fontFamily=Architects Daughter;fontSource=https%3A%2F%2Ffonts.googleapis.com%2Fcss%3Ffamily%3DArchitects%2BDaughter;" vertex="1" parent="P4QTTUL7u6quVxzj3j-v-87">
          <mxGeometry x="440" y="34.00000000000001" width="40.00000000000001" height="34.00000000000001" as="geometry" />
        </mxCell>
        <mxCell id="P4QTTUL7u6quVxzj3j-v-98" value="F" style="strokeColor=inherit;fillColor=inherit;gradientColor=inherit;strokeWidth=1;shadow=0;dashed=0;align=center;html=1;shape=mxgraph.mockup.graphics.rrect;rSize=0;fontColor=#666666;sketch=1;hachureGap=4;jiggle=2;curveFitting=1;fontFamily=Architects Daughter;fontSource=https%3A%2F%2Ffonts.googleapis.com%2Fcss%3Ffamily%3DArchitects%2BDaughter;" vertex="1" parent="P4QTTUL7u6quVxzj3j-v-87">
          <mxGeometry x="480" y="34.00000000000001" width="40.00000000000001" height="34.00000000000001" as="geometry" />
        </mxCell>
        <mxCell id="P4QTTUL7u6quVxzj3j-v-99" value="S" style="strokeColor=inherit;fillColor=inherit;gradientColor=inherit;strokeWidth=1;shadow=0;dashed=0;align=center;html=1;shape=mxgraph.mockup.graphics.rrect;rSize=0;fontColor=#666666;sketch=1;hachureGap=4;jiggle=2;curveFitting=1;fontFamily=Architects Daughter;fontSource=https%3A%2F%2Ffonts.googleapis.com%2Fcss%3Ffamily%3DArchitects%2BDaughter;" vertex="1" parent="P4QTTUL7u6quVxzj3j-v-87">
          <mxGeometry x="520" y="34.00000000000001" width="40.00000000000001" height="34.00000000000001" as="geometry" />
        </mxCell>
        <mxCell id="P4QTTUL7u6quVxzj3j-v-100" value="S" style="strokeColor=inherit;fillColor=inherit;gradientColor=inherit;strokeWidth=1;shadow=0;dashed=0;align=center;html=1;shape=mxgraph.mockup.graphics.rrect;rSize=0;fontColor=#666666;sketch=1;hachureGap=4;jiggle=2;curveFitting=1;fontFamily=Architects Daughter;fontSource=https%3A%2F%2Ffonts.googleapis.com%2Fcss%3Ffamily%3DArchitects%2BDaughter;" vertex="1" parent="P4QTTUL7u6quVxzj3j-v-87">
          <mxGeometry x="560" y="34.00000000000001" width="40.00000000000001" height="34.00000000000001" as="geometry" />
        </mxCell>
        <mxCell id="P4QTTUL7u6quVxzj3j-v-101" value="M" style="strokeColor=inherit;fillColor=inherit;gradientColor=inherit;strokeWidth=1;shadow=0;dashed=0;align=center;html=1;shape=mxgraph.mockup.graphics.rrect;rSize=0;fontColor=#666666;sketch=1;hachureGap=4;jiggle=2;curveFitting=1;fontFamily=Architects Daughter;fontSource=https%3A%2F%2Ffonts.googleapis.com%2Fcss%3Ffamily%3DArchitects%2BDaughter;" vertex="1" parent="P4QTTUL7u6quVxzj3j-v-87">
          <mxGeometry x="600.0000000000001" y="34.00000000000001" width="40.00000000000001" height="34.00000000000001" as="geometry" />
        </mxCell>
        <mxCell id="P4QTTUL7u6quVxzj3j-v-102" value="T" style="strokeColor=inherit;fillColor=inherit;gradientColor=inherit;strokeWidth=1;shadow=0;dashed=0;align=center;html=1;shape=mxgraph.mockup.graphics.rrect;rSize=0;fontColor=#666666;sketch=1;hachureGap=4;jiggle=2;curveFitting=1;fontFamily=Architects Daughter;fontSource=https%3A%2F%2Ffonts.googleapis.com%2Fcss%3Ffamily%3DArchitects%2BDaughter;" vertex="1" parent="P4QTTUL7u6quVxzj3j-v-87">
          <mxGeometry x="640.0000000000001" y="34.00000000000001" width="40.00000000000001" height="34.00000000000001" as="geometry" />
        </mxCell>
        <mxCell id="P4QTTUL7u6quVxzj3j-v-103" value="W" style="strokeColor=inherit;fillColor=inherit;gradientColor=inherit;strokeWidth=1;shadow=0;dashed=0;align=center;html=1;shape=mxgraph.mockup.graphics.rrect;rSize=0;fontColor=#666666;sketch=1;hachureGap=4;jiggle=2;curveFitting=1;fontFamily=Architects Daughter;fontSource=https%3A%2F%2Ffonts.googleapis.com%2Fcss%3Ffamily%3DArchitects%2BDaughter;" vertex="1" parent="P4QTTUL7u6quVxzj3j-v-87">
          <mxGeometry x="680.0000000000001" y="34.00000000000001" width="40.00000000000001" height="34.00000000000001" as="geometry" />
        </mxCell>
        <mxCell id="P4QTTUL7u6quVxzj3j-v-104" value="T" style="strokeColor=inherit;fillColor=inherit;gradientColor=inherit;strokeWidth=1;shadow=0;dashed=0;align=center;html=1;shape=mxgraph.mockup.graphics.rrect;rSize=0;fontColor=#666666;sketch=1;hachureGap=4;jiggle=2;curveFitting=1;fontFamily=Architects Daughter;fontSource=https%3A%2F%2Ffonts.googleapis.com%2Fcss%3Ffamily%3DArchitects%2BDaughter;" vertex="1" parent="P4QTTUL7u6quVxzj3j-v-87">
          <mxGeometry x="720.0000000000001" y="34.00000000000001" width="40.00000000000001" height="34.00000000000001" as="geometry" />
        </mxCell>
        <mxCell id="P4QTTUL7u6quVxzj3j-v-105" value="F" style="strokeColor=inherit;fillColor=inherit;gradientColor=inherit;strokeWidth=1;shadow=0;dashed=0;align=center;html=1;shape=mxgraph.mockup.graphics.rrect;rSize=0;fontColor=#666666;sketch=1;hachureGap=4;jiggle=2;curveFitting=1;fontFamily=Architects Daughter;fontSource=https%3A%2F%2Ffonts.googleapis.com%2Fcss%3Ffamily%3DArchitects%2BDaughter;" vertex="1" parent="P4QTTUL7u6quVxzj3j-v-87">
          <mxGeometry x="760" y="34.00000000000001" width="40.00000000000001" height="34.00000000000001" as="geometry" />
        </mxCell>
        <mxCell id="P4QTTUL7u6quVxzj3j-v-106" value="" style="strokeColor=inherit;fillColor=inherit;gradientColor=inherit;strokeWidth=1;shadow=0;dashed=0;align=center;html=1;shape=mxgraph.mockup.graphics.rrect;rSize=0;fontColor=#666666;sketch=1;hachureGap=4;jiggle=2;curveFitting=1;fontFamily=Architects Daughter;fontSource=https%3A%2F%2Ffonts.googleapis.com%2Fcss%3Ffamily%3DArchitects%2BDaughter;" vertex="1" parent="P4QTTUL7u6quVxzj3j-v-87">
          <mxGeometry y="68.00000000000001" width="320.00000000000006" height="442.00000000000006" as="geometry" />
        </mxCell>
        <mxCell id="P4QTTUL7u6quVxzj3j-v-107" value="" style="strokeColor=inherit;fillColor=inherit;gradientColor=inherit;strokeWidth=1;shadow=0;dashed=0;align=center;html=1;shape=mxgraph.mockup.graphics.rrect;rSize=0;fontColor=#666666;sketch=1;hachureGap=4;jiggle=2;curveFitting=1;fontFamily=Architects Daughter;fontSource=https%3A%2F%2Ffonts.googleapis.com%2Fcss%3Ffamily%3DArchitects%2BDaughter;" vertex="1" parent="P4QTTUL7u6quVxzj3j-v-87">
          <mxGeometry x="320.00000000000006" y="68.00000000000001" width="80.00000000000001" height="442.00000000000006" as="geometry" />
        </mxCell>
        <mxCell id="P4QTTUL7u6quVxzj3j-v-108" value="" style="strokeColor=inherit;fillColor=inherit;gradientColor=inherit;strokeWidth=1;shadow=0;dashed=0;align=center;html=1;shape=mxgraph.mockup.graphics.rrect;rSize=0;fontColor=#666666;sketch=1;hachureGap=4;jiggle=2;curveFitting=1;fontFamily=Architects Daughter;fontSource=https%3A%2F%2Ffonts.googleapis.com%2Fcss%3Ffamily%3DArchitects%2BDaughter;" vertex="1" parent="P4QTTUL7u6quVxzj3j-v-87">
          <mxGeometry x="400" y="68.00000000000001" width="80.00000000000001" height="442.00000000000006" as="geometry" />
        </mxCell>
        <mxCell id="P4QTTUL7u6quVxzj3j-v-109" value="" style="strokeColor=inherit;fillColor=inherit;gradientColor=inherit;strokeWidth=1;shadow=0;dashed=0;align=center;html=1;shape=mxgraph.mockup.graphics.rrect;rSize=0;fontColor=#666666;sketch=1;hachureGap=4;jiggle=2;curveFitting=1;fontFamily=Architects Daughter;fontSource=https%3A%2F%2Ffonts.googleapis.com%2Fcss%3Ffamily%3DArchitects%2BDaughter;" vertex="1" parent="P4QTTUL7u6quVxzj3j-v-87">
          <mxGeometry x="480" y="68.00000000000001" width="80.00000000000001" height="442.00000000000006" as="geometry" />
        </mxCell>
        <mxCell id="P4QTTUL7u6quVxzj3j-v-110" value="" style="strokeColor=inherit;fillColor=inherit;gradientColor=inherit;strokeWidth=1;shadow=0;dashed=0;align=center;html=1;shape=mxgraph.mockup.graphics.rrect;rSize=0;fontColor=#666666;sketch=1;hachureGap=4;jiggle=2;curveFitting=1;fontFamily=Architects Daughter;fontSource=https%3A%2F%2Ffonts.googleapis.com%2Fcss%3Ffamily%3DArchitects%2BDaughter;" vertex="1" parent="P4QTTUL7u6quVxzj3j-v-87">
          <mxGeometry x="560" y="68.00000000000001" width="80.00000000000001" height="442.00000000000006" as="geometry" />
        </mxCell>
        <mxCell id="P4QTTUL7u6quVxzj3j-v-111" value="" style="strokeColor=inherit;fillColor=inherit;gradientColor=inherit;strokeWidth=1;shadow=0;dashed=0;align=center;html=1;shape=mxgraph.mockup.graphics.rrect;rSize=0;fontColor=#666666;sketch=1;hachureGap=4;jiggle=2;curveFitting=1;fontFamily=Architects Daughter;fontSource=https%3A%2F%2Ffonts.googleapis.com%2Fcss%3Ffamily%3DArchitects%2BDaughter;" vertex="1" parent="P4QTTUL7u6quVxzj3j-v-87">
          <mxGeometry x="640.0000000000001" y="68.00000000000001" width="80.00000000000001" height="442.00000000000006" as="geometry" />
        </mxCell>
        <mxCell id="P4QTTUL7u6quVxzj3j-v-112" value="" style="strokeColor=inherit;fillColor=inherit;gradientColor=inherit;strokeWidth=1;shadow=0;dashed=0;align=center;html=1;shape=mxgraph.mockup.graphics.rrect;rSize=0;fontColor=#666666;sketch=1;hachureGap=4;jiggle=2;curveFitting=1;fontFamily=Architects Daughter;fontSource=https%3A%2F%2Ffonts.googleapis.com%2Fcss%3Ffamily%3DArchitects%2BDaughter;" vertex="1" parent="P4QTTUL7u6quVxzj3j-v-87">
          <mxGeometry x="720.0000000000001" y="68.00000000000001" width="80.00000000000001" height="442.00000000000006" as="geometry" />
        </mxCell>
        <mxCell id="P4QTTUL7u6quVxzj3j-v-113" value="1" style="strokeWidth=1;shadow=0;dashed=0;align=center;html=1;shape=mxgraph.mockup.graphics.anchor;fontColor=#666666;sketch=1;hachureGap=4;jiggle=2;curveFitting=1;fontFamily=Architects Daughter;fontSource=https%3A%2F%2Ffonts.googleapis.com%2Fcss%3Ffamily%3DArchitects%2BDaughter;" vertex="1" parent="P4QTTUL7u6quVxzj3j-v-87">
          <mxGeometry y="68.00000000000001" width="26.666666666666668" height="34.00000000000001" as="geometry" />
        </mxCell>
        <mxCell id="P4QTTUL7u6quVxzj3j-v-114" value="Task 1" style="strokeWidth=1;shadow=0;dashed=0;align=center;html=1;shape=mxgraph.mockup.graphics.anchor;fontColor=#666666;sketch=1;hachureGap=4;jiggle=2;curveFitting=1;fontFamily=Architects Daughter;fontSource=https%3A%2F%2Ffonts.googleapis.com%2Fcss%3Ffamily%3DArchitects%2BDaughter;" vertex="1" parent="P4QTTUL7u6quVxzj3j-v-87">
          <mxGeometry x="26.666666666666668" y="68.00000000000001" width="53.333333333333336" height="34.00000000000001" as="geometry" />
        </mxCell>
        <mxCell id="P4QTTUL7u6quVxzj3j-v-115" value="20//10//2014 8:00 AM" style="strokeWidth=1;shadow=0;dashed=0;align=center;html=1;shape=mxgraph.mockup.graphics.anchor;fontColor=#666666;sketch=1;hachureGap=4;jiggle=2;curveFitting=1;fontFamily=Architects Daughter;fontSource=https%3A%2F%2Ffonts.googleapis.com%2Fcss%3Ffamily%3DArchitects%2BDaughter;" vertex="1" parent="P4QTTUL7u6quVxzj3j-v-87">
          <mxGeometry x="80.00000000000001" y="68.00000000000001" width="173.33333333333334" height="34.00000000000001" as="geometry" />
        </mxCell>
        <mxCell id="P4QTTUL7u6quVxzj3j-v-116" value="40h" style="strokeWidth=1;shadow=0;dashed=0;align=center;html=1;shape=mxgraph.mockup.graphics.anchor;fontColor=#666666;sketch=1;hachureGap=4;jiggle=2;curveFitting=1;fontFamily=Architects Daughter;fontSource=https%3A%2F%2Ffonts.googleapis.com%2Fcss%3Ffamily%3DArchitects%2BDaughter;" vertex="1" parent="P4QTTUL7u6quVxzj3j-v-87">
          <mxGeometry x="253.33333333333331" y="68.00000000000001" width="66.66666666666667" height="34.00000000000001" as="geometry" />
        </mxCell>
        <mxCell id="P4QTTUL7u6quVxzj3j-v-117" value="2" style="strokeWidth=1;shadow=0;dashed=0;align=center;html=1;shape=mxgraph.mockup.graphics.anchor;fontColor=#666666;sketch=1;hachureGap=4;jiggle=2;curveFitting=1;fontFamily=Architects Daughter;fontSource=https%3A%2F%2Ffonts.googleapis.com%2Fcss%3Ffamily%3DArchitects%2BDaughter;" vertex="1" parent="P4QTTUL7u6quVxzj3j-v-87">
          <mxGeometry y="102.00000000000001" width="26.666666666666668" height="34.00000000000001" as="geometry" />
        </mxCell>
        <mxCell id="P4QTTUL7u6quVxzj3j-v-118" value="Task 2" style="strokeWidth=1;shadow=0;dashed=0;align=center;html=1;shape=mxgraph.mockup.graphics.anchor;fontColor=#666666;sketch=1;hachureGap=4;jiggle=2;curveFitting=1;fontFamily=Architects Daughter;fontSource=https%3A%2F%2Ffonts.googleapis.com%2Fcss%3Ffamily%3DArchitects%2BDaughter;" vertex="1" parent="P4QTTUL7u6quVxzj3j-v-87">
          <mxGeometry x="26.666666666666668" y="102.00000000000001" width="53.333333333333336" height="34.00000000000001" as="geometry" />
        </mxCell>
        <mxCell id="P4QTTUL7u6quVxzj3j-v-119" value="20//10//2014 8:00 AM" style="strokeWidth=1;shadow=0;dashed=0;align=center;html=1;shape=mxgraph.mockup.graphics.anchor;fontColor=#666666;sketch=1;hachureGap=4;jiggle=2;curveFitting=1;fontFamily=Architects Daughter;fontSource=https%3A%2F%2Ffonts.googleapis.com%2Fcss%3Ffamily%3DArchitects%2BDaughter;" vertex="1" parent="P4QTTUL7u6quVxzj3j-v-87">
          <mxGeometry x="80.00000000000001" y="102.00000000000001" width="173.33333333333334" height="34.00000000000001" as="geometry" />
        </mxCell>
        <mxCell id="P4QTTUL7u6quVxzj3j-v-120" value="40h" style="strokeWidth=1;shadow=0;dashed=0;align=center;html=1;shape=mxgraph.mockup.graphics.anchor;fontColor=#666666;sketch=1;hachureGap=4;jiggle=2;curveFitting=1;fontFamily=Architects Daughter;fontSource=https%3A%2F%2Ffonts.googleapis.com%2Fcss%3Ffamily%3DArchitects%2BDaughter;" vertex="1" parent="P4QTTUL7u6quVxzj3j-v-87">
          <mxGeometry x="253.33333333333331" y="102.00000000000001" width="66.66666666666667" height="34.00000000000001" as="geometry" />
        </mxCell>
        <mxCell id="P4QTTUL7u6quVxzj3j-v-121" value="3" style="strokeWidth=1;shadow=0;dashed=0;align=center;html=1;shape=mxgraph.mockup.graphics.anchor;fontColor=#666666;sketch=1;hachureGap=4;jiggle=2;curveFitting=1;fontFamily=Architects Daughter;fontSource=https%3A%2F%2Ffonts.googleapis.com%2Fcss%3Ffamily%3DArchitects%2BDaughter;" vertex="1" parent="P4QTTUL7u6quVxzj3j-v-87">
          <mxGeometry y="136.00000000000003" width="26.666666666666668" height="34.00000000000001" as="geometry" />
        </mxCell>
        <mxCell id="P4QTTUL7u6quVxzj3j-v-122" value="Task 3" style="strokeWidth=1;shadow=0;dashed=0;align=center;html=1;shape=mxgraph.mockup.graphics.anchor;fontColor=#666666;sketch=1;hachureGap=4;jiggle=2;curveFitting=1;fontFamily=Architects Daughter;fontSource=https%3A%2F%2Ffonts.googleapis.com%2Fcss%3Ffamily%3DArchitects%2BDaughter;" vertex="1" parent="P4QTTUL7u6quVxzj3j-v-87">
          <mxGeometry x="26.666666666666668" y="136.00000000000003" width="53.333333333333336" height="34.00000000000001" as="geometry" />
        </mxCell>
        <mxCell id="P4QTTUL7u6quVxzj3j-v-123" value="20//10//2014 8:00 AM" style="strokeWidth=1;shadow=0;dashed=0;align=center;html=1;shape=mxgraph.mockup.graphics.anchor;fontColor=#666666;sketch=1;hachureGap=4;jiggle=2;curveFitting=1;fontFamily=Architects Daughter;fontSource=https%3A%2F%2Ffonts.googleapis.com%2Fcss%3Ffamily%3DArchitects%2BDaughter;" vertex="1" parent="P4QTTUL7u6quVxzj3j-v-87">
          <mxGeometry x="80.00000000000001" y="136.00000000000003" width="173.33333333333334" height="34.00000000000001" as="geometry" />
        </mxCell>
        <mxCell id="P4QTTUL7u6quVxzj3j-v-124" value="40h" style="strokeWidth=1;shadow=0;dashed=0;align=center;html=1;shape=mxgraph.mockup.graphics.anchor;fontColor=#666666;sketch=1;hachureGap=4;jiggle=2;curveFitting=1;fontFamily=Architects Daughter;fontSource=https%3A%2F%2Ffonts.googleapis.com%2Fcss%3Ffamily%3DArchitects%2BDaughter;" vertex="1" parent="P4QTTUL7u6quVxzj3j-v-87">
          <mxGeometry x="253.33333333333331" y="136.00000000000003" width="66.66666666666667" height="34.00000000000001" as="geometry" />
        </mxCell>
        <mxCell id="P4QTTUL7u6quVxzj3j-v-125" value="4" style="strokeWidth=1;shadow=0;dashed=0;align=center;html=1;shape=mxgraph.mockup.graphics.anchor;fontColor=#666666;sketch=1;hachureGap=4;jiggle=2;curveFitting=1;fontFamily=Architects Daughter;fontSource=https%3A%2F%2Ffonts.googleapis.com%2Fcss%3Ffamily%3DArchitects%2BDaughter;" vertex="1" parent="P4QTTUL7u6quVxzj3j-v-87">
          <mxGeometry y="170.00000000000003" width="26.666666666666668" height="34.00000000000001" as="geometry" />
        </mxCell>
        <mxCell id="P4QTTUL7u6quVxzj3j-v-126" value="Task 4" style="strokeWidth=1;shadow=0;dashed=0;align=center;html=1;shape=mxgraph.mockup.graphics.anchor;fontColor=#666666;sketch=1;hachureGap=4;jiggle=2;curveFitting=1;fontFamily=Architects Daughter;fontSource=https%3A%2F%2Ffonts.googleapis.com%2Fcss%3Ffamily%3DArchitects%2BDaughter;" vertex="1" parent="P4QTTUL7u6quVxzj3j-v-87">
          <mxGeometry x="26.666666666666668" y="170.00000000000003" width="53.333333333333336" height="34.00000000000001" as="geometry" />
        </mxCell>
        <mxCell id="P4QTTUL7u6quVxzj3j-v-127" value="20//10//2014 8:00 AM" style="strokeWidth=1;shadow=0;dashed=0;align=center;html=1;shape=mxgraph.mockup.graphics.anchor;fontColor=#666666;sketch=1;hachureGap=4;jiggle=2;curveFitting=1;fontFamily=Architects Daughter;fontSource=https%3A%2F%2Ffonts.googleapis.com%2Fcss%3Ffamily%3DArchitects%2BDaughter;" vertex="1" parent="P4QTTUL7u6quVxzj3j-v-87">
          <mxGeometry x="80.00000000000001" y="170.00000000000003" width="173.33333333333334" height="34.00000000000001" as="geometry" />
        </mxCell>
        <mxCell id="P4QTTUL7u6quVxzj3j-v-128" value="40h" style="strokeWidth=1;shadow=0;dashed=0;align=center;html=1;shape=mxgraph.mockup.graphics.anchor;fontColor=#666666;sketch=1;hachureGap=4;jiggle=2;curveFitting=1;fontFamily=Architects Daughter;fontSource=https%3A%2F%2Ffonts.googleapis.com%2Fcss%3Ffamily%3DArchitects%2BDaughter;" vertex="1" parent="P4QTTUL7u6quVxzj3j-v-87">
          <mxGeometry x="253.33333333333331" y="170.00000000000003" width="66.66666666666667" height="34.00000000000001" as="geometry" />
        </mxCell>
        <mxCell id="P4QTTUL7u6quVxzj3j-v-129" value="" style="strokeWidth=1;shadow=0;dashed=0;align=center;html=1;shape=mxgraph.mockup.graphics.rrect;rSize=0;strokeColor=none;fillColor=#aaddff;sketch=1;hachureGap=4;jiggle=2;curveFitting=1;fontFamily=Architects Daughter;fontSource=https%3A%2F%2Ffonts.googleapis.com%2Fcss%3Ffamily%3DArchitects%2BDaughter;" vertex="1" parent="P4QTTUL7u6quVxzj3j-v-87">
          <mxGeometry x="333.33333333333337" y="76.5" width="173.33333333333334" height="17.000000000000004" as="geometry" />
        </mxCell>
        <mxCell id="P4QTTUL7u6quVxzj3j-v-130" value="" style="strokeWidth=1;shadow=0;dashed=0;align=center;html=1;shape=mxgraph.mockup.graphics.rrect;rSize=0;strokeColor=none;fillColor=#aaddff;sketch=1;hachureGap=4;jiggle=2;curveFitting=1;fontFamily=Architects Daughter;fontSource=https%3A%2F%2Ffonts.googleapis.com%2Fcss%3Ffamily%3DArchitects%2BDaughter;" vertex="1" parent="P4QTTUL7u6quVxzj3j-v-87">
          <mxGeometry x="333.33333333333337" y="110.50000000000001" width="53.333333333333336" height="17.000000000000004" as="geometry" />
        </mxCell>
        <mxCell id="P4QTTUL7u6quVxzj3j-v-131" value="" style="strokeWidth=1;shadow=0;dashed=0;align=center;html=1;shape=mxgraph.mockup.graphics.rrect;rSize=0;strokeColor=none;fillColor=#aaddff;sketch=1;hachureGap=4;jiggle=2;curveFitting=1;fontFamily=Architects Daughter;fontSource=https%3A%2F%2Ffonts.googleapis.com%2Fcss%3Ffamily%3DArchitects%2BDaughter;" vertex="1" parent="P4QTTUL7u6quVxzj3j-v-87">
          <mxGeometry x="373.3333333333333" y="144.50000000000003" width="133.33333333333334" height="17.000000000000004" as="geometry" />
        </mxCell>
        <mxCell id="P4QTTUL7u6quVxzj3j-v-132" value="" style="strokeWidth=1;shadow=0;dashed=0;align=center;html=1;shape=mxgraph.mockup.graphics.rrect;rSize=0;strokeColor=none;fillColor=#aaddff;sketch=1;hachureGap=4;jiggle=2;curveFitting=1;fontFamily=Architects Daughter;fontSource=https%3A%2F%2Ffonts.googleapis.com%2Fcss%3Ffamily%3DArchitects%2BDaughter;" vertex="1" parent="P4QTTUL7u6quVxzj3j-v-87">
          <mxGeometry x="453.33333333333337" y="178.50000000000003" width="93.33333333333333" height="17.000000000000004" as="geometry" />
        </mxCell>
      </root>
    </mxGraphModel>
  </diagram>
</mxfile>
